<?xml version="1.0" encoding="UTF-8" standalone="no"?>
<!DOCTYPE svg PUBLIC "-//W3C//DTD SVG 1.1//EN" "http://www.w3.org/Graphics/SVG/1.1/DTD/svg11.dtd">
<svg width="100%" height="100%" viewBox="0 0 512 512" version="1.1" xmlns="http://www.w3.org/2000/svg" xmlns:xlink="http://www.w3.org/1999/xlink" xml:space="preserve" xmlns:serif="http://www.serif.com/" style="fill-rule:evenodd;clip-rule:evenodd;stroke-linejoin:round;stroke-miterlimit:1.41421;">
    <path d="M467,75.993L422,75.993L422,60.993C422,36.18 401.813,15.993 377,15.993L45,15.993C20.187,15.993 0,36.18 0,60.993L0,300.993C0,325.806 20.187,345.993 45,345.993L90,345.993L90,420.993C90,434.377 106.222,440.985 115.606,431.599L141.213,405.993L310.787,405.993L396.393,491.599C405.782,500.992 421.999,494.399 421.999,480.993L421.999,405.993L466.999,405.993C491.812,405.993 511.999,385.806 511.999,360.993L511.999,120.993C512,96.18 491.813,75.993 467,75.993ZM120,384.78L120,330.993C120,322.709 113.284,315.993 105,315.993L45,315.993C36.729,315.993 30,309.264 30,300.993L30,60.993C30,52.722 36.729,45.993 45,45.993L377,45.993C385.271,45.993 392,52.722 392,60.993L392,300.993C392,309.264 385.271,315.993 377,315.993L195,315.993C191.021,315.993 187.207,317.574 184.394,320.387L120,384.78ZM482,360.993C482,369.264 475.271,375.993 467,375.993L407,375.993C398.716,375.993 392,382.709 392,390.993L392,444.78L327.606,380.387C324.793,377.574 320.978,375.993 317,375.993L171.213,375.993L201.213,345.993L377,345.993C401.813,345.993 422,325.806 422,300.993L422,105.993L467,105.993C475.271,105.993 482,112.722 482,120.993L482,360.993Z" style="fill:white;fill-rule:nonzero;"/>
    <path d="M287,105.993L75,105.993C66.716,105.993 60,112.709 60,120.993C60,129.277 66.716,135.993 75,135.993L287,135.993C295.284,135.993 302,129.277 302,120.993C302,112.709 295.284,105.993 287,105.993Z" style="fill:white;fill-rule:nonzero;"/>
    <path d="M347,165.993L75,165.993C66.716,165.993 60,172.709 60,180.993C60,189.277 66.716,195.993 75,195.993L347,195.993C355.284,195.993 362,189.277 362,180.993C362,172.709 355.284,165.993 347,165.993Z" style="fill:white;fill-rule:nonzero;"/>
    <path d="M227,225.993L75,225.993C66.716,225.993 60,232.709 60,240.993C60,249.277 66.716,255.993 75,255.993L227,255.993C235.284,255.993 242,249.277 242,240.993C242,232.709 235.284,225.993 227,225.993Z" style="fill:white;fill-rule:nonzero;"/>
</svg>
